<?xml version="1.0" encoding="UTF-8" standalone="no"?>
<svg
   xmlns:dc="http://purl.org/dc/elements/1.1/"
   xmlns:cc="http://creativecommons.org/ns#"
   xmlns:rdf="http://www.w3.org/1999/02/22-rdf-syntax-ns#"
   xmlns:svg="http://www.w3.org/2000/svg"
   xmlns="http://www.w3.org/2000/svg"
   viewBox="0 0 509.44 73.040001"
   height="73.040001"
   width="509.44"
   xml:space="preserve"
   id="svg2"
   version="1.1"><metadata
     id="metadata8"><rdf:RDF><cc:Work
         rdf:about=""><dc:format>image/svg+xml</dc:format><dc:type
           rdf:resource="http://purl.org/dc/dcmitype/StillImage" /></cc:Work></rdf:RDF></metadata><defs
     id="defs6" /><g
     transform="matrix(1.3333333,0,0,-1.3333333,0,73.04)"
     id="g10"><g
       transform="scale(0.1)"
       id="g12"><path
         id="path14"
         style="fill:#ef314a;fill-opacity:1;fill-rule:nonzero;stroke:none"
         d="m 2867.33,417.809 h -9.01 l -98.51,-291.332 h 9.01 l 98.51,291.332" /><path
         id="path16"
         style="fill:#de7156;fill-opacity:1;fill-rule:nonzero;stroke:none"
         d="m 48.1992,379.059 c 0,20.289 2.293,40.023 6.5,59.046 C 20.3555,392.344 0,335.488 0,273.879 0,212.063 20.4922,155.051 55.0352,109.219 c 0.0351,46.554 11.7617,90.359 32.3867,128.676 -24.8867,41.207 -39.2227,89.507 -39.2227,141.164" /><path
         id="path18"
         style="fill:#62ccee;fill-opacity:1;fill-rule:nonzero;stroke:none"
         d="m 273.879,547.75 c -56.129,0 -108.293,-16.91 -151.731,-45.875 -25.9371,-17.293 -48.773,-38.883 -67.4488,-63.77 -4.207,-19.023 -6.5,-38.757 -6.5,-59.046 0,-51.657 14.336,-99.957 39.2227,-141.164 27.0941,50.339 69.5551,91.168 121.1131,116.21 23.141,50.704 61.332,93.067 108.922,121.348 28.754,17.09 60.957,28.922 95.262,34.469 -40.715,24.004 -88.153,37.828 -138.84,37.828" /><path
         id="path20"
         style="fill:#b3de4d;fill-opacity:1;fill-rule:nonzero;stroke:none"
         d="m 208.535,354.105 c 12.367,6.012 25.293,11.043 38.621,15.149 6.024,1.855 12.098,3.578 18.289,5.019 19.891,4.633 40.625,7.086 61.934,7.086 11.621,0 23.043,-0.812 34.277,-2.234 1.688,-0.215 3.399,-0.371 5.074,-0.613 2.524,-0.371 5.012,-0.848 7.512,-1.282 1.742,-0.304 3.5,-0.554 5.235,-0.89 2.336,-0.457 4.632,-1.012 6.949,-1.531 1.859,-0.411 3.746,-0.778 5.59,-1.223 2.707,-0.664 5.371,-1.43 8.043,-2.172 1.421,-0.394 2.863,-0.734 4.273,-1.148 8.141,-2.407 16.129,-5.176 23.934,-8.293 -24.95,47.871 -63.602,87.445 -110.809,113.48 -47.59,-28.281 -85.781,-70.644 -108.922,-121.348 v 0" /><path
         id="path22"
         style="fill:#9144a7;fill-opacity:1;fill-rule:nonzero;stroke:none"
         d="m 438.723,131.914 c -13.313,-6.316 -27.215,-11.601 -41.598,-15.723 -9.59,-2.753 -19.395,-5 -29.387,-6.699 -4.996,-0.847 -10.035,-1.562 -15.117,-2.137 -10.172,-1.156 -20.508,-1.742 -30.98,-1.742 v 0 c -10.192,0 -20.246,0.559 -30.141,1.653 -14.844,1.64 -29.328,4.472 -43.355,8.386 -14.036,3.926 -27.61,8.938 -40.633,14.922 23.761,-53.3787 64.23,-97.5779 114.715,-126.22634 4.437,0.78906 8.832,1.67968 13.195,2.68359 C 438.879,30.8008 519.961,113.105 541.859,217.266 515.145,180.977 479.824,151.414 438.723,131.914" /><path
         id="path24"
         style="fill:#f4e60f;fill-opacity:1;fill-rule:nonzero;stroke:none"
         d="m 412.719,509.922 c -34.305,-5.547 -66.508,-17.379 -95.262,-34.469 47.207,-26.035 85.859,-65.609 110.809,-113.48 2.461,-4.727 4.793,-9.528 6.984,-14.403 4.379,-9.761 8.207,-19.816 11.445,-30.136 3.239,-10.325 5.879,-20.907 7.879,-31.711 1,-5.407 1.848,-10.864 2.528,-16.371 1.355,-11.024 2.054,-22.247 2.054,-33.633 0,-36.754 -7.297,-71.793 -20.433,-103.805 41.101,19.5 76.422,49.063 103.136,85.352 3.516,16.718 5.454,34.007 5.77,51.703 0.027,1.636 0.121,3.261 0.121,4.91 0,100.566 -54.238,188.422 -135.031,236.043" /><path
         id="path26"
         style="fill:#ef314a;fill-opacity:1;fill-rule:nonzero;stroke:none"
         d="m 207.512,130.574 c -9.414,21.145 -16.242,43.696 -20.035,67.258 -0.442,2.754 -0.758,5.547 -1.114,8.32 -0.258,1.973 -0.582,3.926 -0.793,5.918 -1.023,9.571 -1.55,19.289 -1.55,29.137 0,15.106 1.238,29.922 3.617,44.356 0.984,6.003 2.242,11.921 3.617,17.792 4.137,17.622 9.918,34.618 17.281,50.75 C 156.977,329.063 114.516,288.234 87.4219,237.895 66.7969,199.578 55.0703,155.773 55.0352,109.219 105.016,42.8906 184.43,0 273.879,0 290.387,0 306.523,1.54297 322.227,4.34766 271.742,32.9961 231.273,77.1953 207.512,130.574" /><path
         id="path28"
         style="fill:#a1542a;fill-opacity:1;fill-rule:nonzero;stroke:none"
         d="m 291.5,107.266 c 9.895,-1.094 19.949,-1.653 30.141,-1.653 10.472,0 20.808,0.586 30.98,1.742 5.082,0.575 10.121,1.29 15.117,2.137 9.992,1.699 19.797,3.946 29.387,6.699 14.383,4.122 28.285,9.407 41.598,15.723 13.136,32.012 20.433,67.051 20.433,103.805 0,11.386 -0.699,22.609 -2.054,33.633 -0.68,5.507 -1.528,10.964 -2.528,16.371 -2,10.804 -4.64,21.386 -7.879,31.711 -3.238,10.32 -7.066,20.375 -11.445,30.136 -2.191,4.875 -4.523,9.676 -6.984,14.403 -0.008,0.004 -0.02,0.004 -0.028,0.011 1.313,-9.347 2.035,-18.882 2.035,-28.589 0,-112.457 -91.164,-203.629 -203.625,-203.629 -6.472,0 -12.871,0.343 -19.187,0.929 0.016,-0.043 0.027,-0.082 0.051,-0.121 13.023,-5.984 26.597,-10.996 40.633,-14.922 14.027,-3.914 28.511,-6.746 43.355,-8.386" /><path
         id="path30"
         style="fill:#38b746;fill-opacity:1;fill-rule:nonzero;stroke:none"
         d="m 400.059,371.414 c -2.672,0.742 -5.336,1.508 -8.043,2.172 -1.844,0.445 -3.731,0.812 -5.59,1.223 -2.317,0.519 -4.613,1.074 -6.949,1.531 -1.735,0.336 -3.493,0.586 -5.235,0.89 -2.5,0.434 -4.984,0.911 -7.512,1.282 -1.679,0.242 -3.386,0.398 -5.074,0.613 -11.234,1.422 -22.656,2.234 -34.277,2.234 -21.309,0 -42.043,-2.453 -61.934,-7.086 -6.191,-1.441 -12.265,-3.164 -18.289,-5.019 -13.328,-4.106 -26.254,-9.137 -38.621,-15.149 -7.359,-16.132 -13.144,-33.128 -17.281,-50.75 -1.375,-5.871 -2.633,-11.789 -3.617,-17.792 -2.379,-14.434 -3.617,-29.25 -3.617,-44.356 0,-9.848 0.527,-19.566 1.55,-29.137 0.211,-1.992 0.535,-3.945 0.793,-5.918 0.356,-2.773 0.672,-5.566 1.114,-8.32 3.789,-23.516 10.593,-46.023 19.984,-67.137 6.316,-0.586 12.715,-0.929 19.187,-0.929 112.461,0 203.625,91.172 203.625,203.629 0,9.707 -0.722,19.242 -2.035,28.589 -7.804,3.114 -15.777,5.875 -23.906,8.282 -1.41,0.414 -2.852,0.754 -4.273,1.148" /><path
         id="path32"
         style="fill:#100f0d;fill-opacity:1;fill-rule:nonzero;stroke:none"
         d="m 867.98,257.156 h -91.949 v 150.891 h 91.949 c 51.637,0 84.122,-28.645 84.122,-75.445 0,-46.594 -32.684,-75.446 -84.122,-75.446 z m 0.805,160.371 H 765.941 V 126.438 h 10.09 v 121.238 h 92.555 c 57.09,0 93.598,33.086 93.598,84.926 0,51.847 -36.309,84.925 -93.399,84.925" /><path
         id="path34"
         style="fill:#100f0d;fill-opacity:1;fill-rule:nonzero;stroke:none"
         d="m 1217.58,400.387 h -1.01 L 1028.74,126.438 h -10.09 v 291.089 h 10.09 V 143.586 h 1.01 l 187.83,273.941 h 10.08 V 126.438 h -10.08 v 273.949" /><path
         id="path36"
         style="fill:#100f0d;fill-opacity:1;fill-rule:nonzero;stroke:none"
         d="m 1527.55,195.383 c 25.72,16.601 38.58,43.148 38.58,78.828 0,36.094 -12.86,62.23 -38.58,78.406 -20.74,13.278 -49.37,19.91 -85.88,20.332 v -197.89 c 36.51,0.832 65.14,7.468 85.88,20.324 z m -181.71,157.234 c -26.14,-16.176 -39,-42.312 -39,-78.406 0,-35.68 12.86,-61.816 38.59,-78.41 20.32,-13.274 48.95,-19.91 86.29,-20.742 v 197.89 c -36.93,-0.422 -65.55,-7.054 -85.88,-20.332 z m 95.83,64.723 v -34.438 c 37.34,-0.414 67.21,-7.468 89.61,-21.57 29.88,-18.258 44.81,-47.293 44.81,-87.121 0,-39.824 -14.93,-68.867 -44.81,-87.539 -22.4,-13.692 -52.27,-20.742 -89.61,-21.574 l 0.05,-39.012 h -9.96 l -0.04,39.012 c -37.76,0.832 -67.62,7.882 -90.03,21.574 -29.87,18.672 -44.8,47.715 -44.8,87.539 0,39.828 14.93,68.863 44.8,87.121 22.41,14.102 52.27,21.156 90.03,21.57 v 34.438 h 9.95" /><path
         id="path38"
         style="fill:#100f0d;fill-opacity:1;fill-rule:nonzero;stroke:none"
         d="m 2121.83,133.684 -9.32,-7.153 -140.3,167.489 -30.55,-26.516 v -3.727 l -0.01,-137.246 h -10.09 v 291.09 h 10.09 v -137.98 l 0.01,-0.692 160.56,138.672 6.62,-6.762 -127.71,-110.125 -0.63,-0.546 141.33,-166.504" /><path
         id="path40"
         style="fill:#100f0d;fill-opacity:1;fill-rule:nonzero;stroke:none"
         d="m 2383.16,400.473 h -1 L 2194.33,126.531 h -10.09 v 291.09 h 10.09 V 143.672 h 1 l 187.83,273.949 h 10.09 v -291.09 h -10.09 v 273.942" /><path
         id="path42"
         style="fill:#100f0d;fill-opacity:1;fill-rule:nonzero;stroke:none"
         d="m 2582.7,136.27 c 53.07,0 86.65,29.226 86.65,75.253 0,45.606 -33.79,75.043 -86.65,75.043 h -89.74 V 136.27 Z m 0.62,-9.739 H 2482.59 V 419.43 h 166.26 v -9.742 H 2492.96 V 296.309 h 90.36 c 58.66,0 96.19,-32.957 96.19,-84.786 0,-52.031 -37.31,-84.992 -96.19,-84.992" /><path
         id="path44"
         style="fill:#100f0d;fill-opacity:1;fill-rule:nonzero;stroke:none"
         d="m 3357.01,272.578 c 0,83.695 -34.38,136.547 -89.39,136.547 -54.82,0 -89.4,-52.852 -89.4,-136.547 0,-83.887 34.39,-136.738 89.4,-136.738 55.01,0 89.39,52.851 89.39,136.738 z m -188.61,0 c 0,89.395 38.32,145.586 99.22,145.586 61.1,0 99.22,-56.191 99.22,-145.586 0,-89.59 -38.12,-145.769 -99.22,-145.769 -61.11,0 -99.22,56.179 -99.22,145.769" /><path
         id="path46"
         style="fill:#100f0d;fill-opacity:1;fill-rule:nonzero;stroke:none"
         d="m 3499.6,405.797 h -0.41 c -8.92,-8.199 -17.14,-16.106 -74.47,-69.352 l -5.41,6.246 c 21.99,20.704 59.57,55.942 80.29,75.18 h 9.85 V 126.105 h -9.85 v 279.692" /><path
         id="path48"
         style="fill:#100f0d;fill-opacity:1;fill-rule:nonzero;stroke:none"
         d="m 3810.14,407.871 v 0.402 h -172.88 v 9.481 h 183.57 v -10.082 l -140.8,-281.012 -9.13,4.231 139.24,276.98" /><path
         id="path50"
         style="fill:#100f0d;fill-opacity:1;fill-rule:nonzero;stroke:none"
         d="m 2947.98,134.453 h -6.74 v 29.297 c 0,53.059 41.47,67.773 81.55,82.004 42.19,14.969 85.62,32.801 85.8,89.777 v 2.414 c -0.95,64.899 -59.48,81.301 -85.13,80.75 -65.41,-1.398 -83.52,-47.656 -87.04,-79.843 h 9.85 c 5.41,42.093 28.72,70.957 76.95,70.957 37.62,0 75.59,-23.403 75.59,-72.27 v -2.008 c 0,-52.535 -41.54,-67.683 -81.72,-82.332 -42.1,-15.355 -85.63,-31.226 -85.63,-89.449 v -34.598 c 0,-0.011 0,-0.019 0,-0.031 v -3.254 h 183.92 v 8.586 h -167.4" /><path
         id="path52"
         style="fill:#ef314a;fill-opacity:1;fill-rule:nonzero;stroke:none"
         d="m 1745.99,362.301 h 10 v -83.106 h 83.11 v -10.004 h -83.11 v -83.105 h -10 v 83.105 h -83.46 v 10.004 h 83.46 v 83.106" /></g></g></svg>